<svg width="60" height="59" viewBox="0 0 60 59" fill="none" xmlns="http://www.w3.org/2000/svg">
<g clip-path="url(#clip0_5_780)">
<path d="M60 0H0V59H60V0Z" fill="#07B594"/>
<path d="M40.44 40.946H23.88V17.582H40.44C41.034 17.582 41.52 18.0422 41.52 18.6263V39.8663C41.52 40.4563 41.034 40.946 40.44 40.946Z" fill="#0A7362" stroke="#0A7362" stroke-width="8" stroke-miterlimit="10" stroke-linecap="round" stroke-linejoin="round"/>
<path d="M38.1 41.418H37.26C37.092 41.418 36.96 41.2882 36.96 41.123V17.405C36.96 17.2398 37.092 17.11 37.26 17.11H38.1C38.268 17.11 38.4 17.2398 38.4 17.405V41.123C38.4 41.2882 38.268 41.418 38.1 41.418Z" fill="#0A7362" stroke="#0A7362" stroke-width="8" stroke-miterlimit="10" stroke-linecap="round" stroke-linejoin="round"/>
<path d="M27.54 43.6423L25.74 42.657V40.946H27.54V43.6423Z" fill="#0A7362" stroke="#0A7362" stroke-width="8" stroke-miterlimit="10" stroke-linecap="round" stroke-linejoin="round"/>
<path d="M39.84 40.061H23.28V16.697H39.84C40.434 16.697 40.92 17.1572 40.92 17.7413V38.9813C40.92 39.5713 40.434 40.061 39.84 40.061Z" fill="#4C5B60"/>
<mask id="mask0_5_780" style="mask-type:alpha" maskUnits="userSpaceOnUse" x="23" y="16" width="18" height="25">
<path d="M39.84 40.179H23.28V16.815H39.84C40.434 16.815 40.92 17.2752 40.92 17.8593V39.0993C40.92 39.6893 40.434 40.179 39.84 40.179Z" fill="white"/>
</mask>
<g mask="url(#mask0_5_780)">
<path opacity="0.11" d="M21.744 58.0325C21.72 58.0325 21.696 58.0266 21.678 58.0089C21.642 57.9735 21.642 57.9204 21.678 57.885L42.342 37.5713C42.378 37.5359 42.432 37.5359 42.468 37.5713C42.504 37.6067 42.504 37.6598 42.468 37.6952L21.81 58.0089C21.792 58.0266 21.768 58.0325 21.744 58.0325Z" fill="#102D3B"/>
<path opacity="0.11" d="M21.744 57.2064C21.72 57.2064 21.696 57.2005 21.678 57.1828C21.642 57.1474 21.642 57.0943 21.678 57.0589L42.342 36.7452C42.378 36.7098 42.432 36.7098 42.468 36.7452C42.504 36.7806 42.504 36.8337 42.468 36.8691L21.81 57.1828C21.792 57.2005 21.768 57.2064 21.744 57.2064Z" fill="#102D3B"/>
<path opacity="0.11" d="M21.744 56.3805C21.72 56.3805 21.696 56.3746 21.678 56.3569C21.642 56.3215 21.642 56.2684 21.678 56.233L42.342 35.9193C42.378 35.8839 42.432 35.8839 42.468 35.9193C42.504 35.9547 42.504 36.0077 42.468 36.0431L21.81 56.3569C21.792 56.3746 21.768 56.3805 21.744 56.3805Z" fill="#102D3B"/>
<path opacity="0.11" d="M21.744 55.5545C21.72 55.5545 21.696 55.5486 21.678 55.5309C21.642 55.4955 21.642 55.4424 21.678 55.407L42.342 35.0933C42.378 35.0579 42.432 35.0579 42.468 35.0933C42.504 35.1287 42.504 35.1818 42.468 35.2172L21.81 55.5309C21.792 55.5486 21.768 55.5545 21.744 55.5545Z" fill="#102D3B"/>
<path opacity="0.11" d="M21.744 54.7284C21.72 54.7284 21.696 54.7225 21.678 54.7048C21.642 54.6694 21.642 54.6163 21.678 54.5809L42.342 34.2672C42.378 34.2318 42.432 34.2318 42.468 34.2672C42.504 34.3026 42.504 34.3557 42.468 34.3911L21.81 54.7048C21.792 54.7225 21.768 54.7284 21.744 54.7284Z" fill="#102D3B"/>
<path opacity="0.11" d="M21.744 53.9025C21.72 53.9025 21.696 53.8966 21.678 53.8789C21.642 53.8435 21.642 53.7904 21.678 53.755L42.342 33.4413C42.378 33.4059 42.432 33.4059 42.468 33.4413C42.504 33.4767 42.504 33.5298 42.468 33.5652L21.81 53.8789C21.792 53.8966 21.768 53.9025 21.744 53.9025Z" fill="#102D3B"/>
<path opacity="0.11" d="M21.744 53.0765C21.72 53.0765 21.696 53.0706 21.678 53.0529C21.642 53.0175 21.642 52.9644 21.678 52.929L42.342 32.6153C42.378 32.5799 42.432 32.5799 42.468 32.6153C42.504 32.6507 42.504 32.7038 42.468 32.7392L21.81 53.0529C21.792 53.0706 21.768 53.0765 21.744 53.0765Z" fill="#102D3B"/>
<path opacity="0.11" d="M21.744 52.2504C21.72 52.2504 21.696 52.2445 21.678 52.2268C21.642 52.1914 21.642 52.1383 21.678 52.1029L42.342 31.7892C42.378 31.7538 42.432 31.7538 42.468 31.7892C42.504 31.8246 42.504 31.8777 42.468 31.9131L21.81 52.2268C21.792 52.2445 21.768 52.2504 21.744 52.2504Z" fill="#102D3B"/>
<path opacity="0.11" d="M21.744 51.4245C21.72 51.4245 21.696 51.4186 21.678 51.4009C21.642 51.3655 21.642 51.3124 21.678 51.277L42.342 30.9633C42.378 30.9279 42.432 30.9279 42.468 30.9633C42.504 30.9987 42.504 31.0518 42.468 31.0872L21.81 51.4009C21.792 51.4186 21.768 51.4245 21.744 51.4245Z" fill="#102D3B"/>
<path opacity="0.11" d="M21.744 50.5984C21.72 50.5984 21.696 50.5925 21.678 50.5748C21.642 50.5394 21.642 50.4863 21.678 50.4509L42.342 30.1372C42.378 30.1018 42.432 30.1018 42.468 30.1372C42.504 30.1726 42.504 30.2257 42.468 30.2611L21.81 50.5748C21.792 50.5925 21.768 50.5984 21.744 50.5984Z" fill="#102D3B"/>
<path opacity="0.11" d="M21.744 49.7725C21.72 49.7725 21.696 49.7666 21.678 49.7489C21.642 49.7135 21.642 49.6604 21.678 49.625L42.342 29.3112C42.378 29.2758 42.432 29.2758 42.468 29.3112C42.504 29.3466 42.504 29.3997 42.468 29.4351L21.81 49.7489C21.792 49.7666 21.768 49.7725 21.744 49.7725Z" fill="#102D3B"/>
<path opacity="0.11" d="M21.744 48.9465C21.72 48.9465 21.696 48.9406 21.678 48.9229C21.642 48.8875 21.642 48.8344 21.678 48.799L42.342 28.4853C42.378 28.4499 42.432 28.4499 42.468 28.4853C42.504 28.5207 42.504 28.5738 42.468 28.6092L21.81 48.9229C21.792 48.9406 21.768 48.9465 21.744 48.9465Z" fill="#102D3B"/>
<path opacity="0.11" d="M21.744 48.1204C21.72 48.1204 21.696 48.1145 21.678 48.0968C21.642 48.0614 21.642 48.0083 21.678 47.9729L42.342 27.6592C42.378 27.6238 42.432 27.6238 42.468 27.6592C42.504 27.6946 42.504 27.7477 42.468 27.7831L21.81 48.0968C21.792 48.1145 21.768 48.1204 21.744 48.1204Z" fill="#102D3B"/>
<path opacity="0.11" d="M21.744 47.2945C21.72 47.2945 21.696 47.2886 21.678 47.2709C21.642 47.2355 21.642 47.1824 21.678 47.147L42.342 26.8333C42.378 26.7979 42.432 26.7979 42.468 26.8333C42.504 26.8687 42.504 26.9218 42.468 26.9572L21.81 47.2709C21.792 47.2886 21.768 47.2945 21.744 47.2945Z" fill="#102D3B"/>
<path opacity="0.11" d="M21.744 46.4685C21.72 46.4685 21.696 46.4626 21.678 46.4449C21.642 46.4095 21.642 46.3564 21.678 46.321L42.342 26.0073C42.378 25.9719 42.432 25.9719 42.468 26.0073C42.504 26.0427 42.504 26.0958 42.468 26.1312L21.81 46.4449C21.792 46.4626 21.768 46.4685 21.744 46.4685Z" fill="#102D3B"/>
<path opacity="0.11" d="M21.744 45.6425C21.72 45.6425 21.696 45.6366 21.678 45.6189C21.642 45.5835 21.642 45.5304 21.678 45.495L42.342 25.1812C42.378 25.1458 42.432 25.1458 42.468 25.1812C42.504 25.2166 42.504 25.2697 42.468 25.3051L21.81 45.6189C21.792 45.6366 21.768 45.6425 21.744 45.6425Z" fill="#102D3B"/>
<path opacity="0.11" d="M21.744 44.8165C21.72 44.8165 21.696 44.8106 21.678 44.7929C21.642 44.7575 21.642 44.7044 21.678 44.669L42.342 24.3553C42.378 24.3199 42.432 24.3199 42.468 24.3553C42.504 24.3907 42.504 24.4438 42.468 24.4792L21.81 44.7929C21.792 44.8106 21.768 44.8165 21.744 44.8165Z" fill="#102D3B"/>
<path opacity="0.11" d="M21.744 43.9905C21.72 43.9905 21.696 43.9846 21.678 43.9669C21.642 43.9315 21.642 43.8784 21.678 43.843L42.342 23.5293C42.378 23.4939 42.432 23.4939 42.468 23.5293C42.504 23.5647 42.504 23.6178 42.468 23.6532L21.81 43.9669C21.792 43.9846 21.768 43.9905 21.744 43.9905Z" fill="#102D3B"/>
<path opacity="0.11" d="M21.744 43.1644C21.72 43.1644 21.696 43.1585 21.678 43.1408C21.642 43.1054 21.642 43.0523 21.678 43.0169L42.342 22.7032C42.378 22.6678 42.432 22.6678 42.468 22.7032C42.504 22.7386 42.504 22.7917 42.468 22.8271L21.81 43.1408C21.792 43.1585 21.768 43.1644 21.744 43.1644Z" fill="#102D3B"/>
<path opacity="0.11" d="M21.744 42.3385C21.72 42.3385 21.696 42.3326 21.678 42.3149C21.642 42.2795 21.642 42.2264 21.678 42.191L42.342 21.8773C42.378 21.8419 42.432 21.8419 42.468 21.8773C42.504 21.9127 42.504 21.9658 42.468 22.0012L21.81 42.3149C21.792 42.3326 21.768 42.3385 21.744 42.3385Z" fill="#102D3B"/>
<path opacity="0.11" d="M21.744 41.5124C21.72 41.5124 21.696 41.5065 21.678 41.4888C21.642 41.4534 21.642 41.4003 21.678 41.3649L42.342 21.0512C42.378 21.0158 42.432 21.0158 42.468 21.0512C42.504 21.0866 42.504 21.1397 42.468 21.1751L21.81 41.4888C21.792 41.5065 21.768 41.5124 21.744 41.5124Z" fill="#102D3B"/>
<path opacity="0.11" d="M21.744 40.6865C21.72 40.6865 21.696 40.6806 21.678 40.6629C21.642 40.6275 21.642 40.5744 21.678 40.539L42.342 20.2252C42.378 20.1898 42.432 20.1898 42.468 20.2252C42.504 20.2606 42.504 20.3138 42.468 20.3492L21.81 40.6629C21.792 40.6806 21.768 40.6865 21.744 40.6865Z" fill="#102D3B"/>
<path opacity="0.11" d="M21.744 39.8605C21.72 39.8605 21.696 39.8546 21.678 39.8369C21.642 39.8015 21.642 39.7484 21.678 39.713L42.342 19.3993C42.378 19.3639 42.432 19.3639 42.468 19.3993C42.504 19.4347 42.504 19.4878 42.468 19.5232L21.81 39.8369C21.792 39.8546 21.768 39.8605 21.744 39.8605Z" fill="#102D3B"/>
<path opacity="0.11" d="M21.744 39.0344C21.72 39.0344 21.696 39.0285 21.678 39.0108C21.642 38.9754 21.642 38.9223 21.678 38.8869L42.342 18.5732C42.378 18.5378 42.432 18.5378 42.468 18.5732C42.504 18.6086 42.504 18.6617 42.468 18.6971L21.81 39.0108C21.792 39.0285 21.768 39.0344 21.744 39.0344Z" fill="#102D3B"/>
<path opacity="0.11" d="M21.744 38.2085C21.72 38.2085 21.696 38.2026 21.678 38.1849C21.642 38.1495 21.642 38.0964 21.678 38.061L42.342 17.7473C42.378 17.7119 42.432 17.7119 42.468 17.7473C42.504 17.7827 42.504 17.8358 42.468 17.8712L21.81 38.1849C21.792 38.2026 21.768 38.2085 21.744 38.2085Z" fill="#102D3B"/>
<path opacity="0.11" d="M21.744 37.3825C21.72 37.3825 21.696 37.3766 21.678 37.3589C21.642 37.3235 21.642 37.2704 21.678 37.235L42.342 16.9213C42.378 16.8859 42.432 16.8859 42.468 16.9213C42.504 16.9567 42.504 17.0098 42.468 17.0452L21.81 37.3589C21.792 37.3766 21.768 37.3825 21.744 37.3825Z" fill="#102D3B"/>
<path opacity="0.11" d="M21.744 36.5564C21.72 36.5564 21.696 36.5505 21.678 36.5328C21.642 36.4974 21.642 36.4443 21.678 36.4089L42.342 16.0952C42.378 16.0598 42.432 16.0598 42.468 16.0952C42.504 16.1306 42.504 16.1837 42.468 16.2191L21.81 36.5328C21.792 36.5505 21.768 36.5564 21.744 36.5564Z" fill="#102D3B"/>
<path opacity="0.11" d="M21.744 35.7305C21.72 35.7305 21.696 35.7246 21.678 35.7069C21.642 35.6715 21.642 35.6184 21.678 35.583L42.342 15.2693C42.378 15.2339 42.432 15.2339 42.468 15.2693C42.504 15.3047 42.504 15.3578 42.468 15.3932L21.81 35.7069C21.792 35.7246 21.768 35.7305 21.744 35.7305Z" fill="#102D3B"/>
<path opacity="0.11" d="M21.744 34.9045C21.72 34.9045 21.696 34.8986 21.678 34.8809C21.642 34.8455 21.642 34.7924 21.678 34.757L42.342 14.4433C42.378 14.4079 42.432 14.4079 42.468 14.4433C42.504 14.4787 42.504 14.5318 42.468 14.5672L21.81 34.8809C21.792 34.8986 21.768 34.9045 21.744 34.9045Z" fill="#102D3B"/>
<path opacity="0.11" d="M21.744 34.0785C21.72 34.0785 21.696 34.0726 21.678 34.0549C21.642 34.0195 21.642 33.9664 21.678 33.931L42.342 13.6172C42.378 13.5818 42.432 13.5818 42.468 13.6172C42.504 13.6526 42.504 13.7057 42.468 13.7411L21.81 34.0549C21.792 34.0726 21.768 34.0785 21.744 34.0785Z" fill="#102D3B"/>
<path opacity="0.11" d="M21.744 33.2525C21.72 33.2525 21.696 33.2466 21.678 33.2289C21.642 33.1935 21.642 33.1404 21.678 33.105L42.342 12.7913C42.378 12.7559 42.432 12.7559 42.468 12.7913C42.504 12.8267 42.504 12.8798 42.468 12.9152L21.81 33.2289C21.792 33.2466 21.768 33.2525 21.744 33.2525Z" fill="#102D3B"/>
<path opacity="0.11" d="M21.744 32.4265C21.72 32.4265 21.696 32.4206 21.678 32.4029C21.642 32.3675 21.642 32.3144 21.678 32.279L42.342 11.9653C42.378 11.9299 42.432 11.9299 42.468 11.9653C42.504 12.0007 42.504 12.0538 42.468 12.0892L21.81 32.4029C21.792 32.4206 21.768 32.4265 21.744 32.4265Z" fill="#102D3B"/>
<path opacity="0.11" d="M21.744 31.6005C21.72 31.6005 21.696 31.5946 21.678 31.5769C21.642 31.5415 21.642 31.4884 21.678 31.453L42.342 11.1393C42.378 11.1039 42.432 11.1039 42.468 11.1393C42.504 11.1747 42.504 11.2278 42.468 11.2632L21.81 31.5769C21.792 31.5946 21.768 31.6005 21.744 31.6005Z" fill="#102D3B"/>
<path opacity="0.11" d="M21.744 30.7745C21.72 30.7745 21.696 30.7686 21.678 30.7509C21.642 30.7155 21.642 30.6624 21.678 30.627L42.342 10.3133C42.378 10.2779 42.432 10.2779 42.468 10.3133C42.504 10.3487 42.504 10.4018 42.468 10.4372L21.81 30.7509C21.792 30.7686 21.768 30.7745 21.744 30.7745Z" fill="#102D3B"/>
<path opacity="0.11" d="M21.744 29.9485C21.72 29.9485 21.696 29.9426 21.678 29.9249C21.642 29.8895 21.642 29.8364 21.678 29.801L42.342 9.48726C42.378 9.45186 42.432 9.45186 42.468 9.48726C42.504 9.52266 42.504 9.57576 42.468 9.61116L21.81 29.9249C21.792 29.9426 21.768 29.9485 21.744 29.9485Z" fill="#102D3B"/>
<path opacity="0.11" d="M21.744 29.1225C21.72 29.1225 21.696 29.1166 21.678 29.0989C21.642 29.0635 21.642 29.0104 21.678 28.975L42.342 8.66125C42.378 8.62585 42.432 8.62585 42.468 8.66125C42.504 8.69665 42.504 8.74975 42.468 8.78515L21.81 29.0989C21.792 29.1166 21.768 29.1225 21.744 29.1225Z" fill="#102D3B"/>
<path opacity="0.11" d="M21.744 28.2965C21.72 28.2965 21.696 28.2906 21.678 28.2729C21.642 28.2375 21.642 28.1844 21.678 28.149L42.342 7.83525C42.378 7.79985 42.432 7.79985 42.468 7.83525C42.504 7.87065 42.504 7.92375 42.468 7.95915L21.81 28.2729C21.792 28.2906 21.768 28.2965 21.744 28.2965Z" fill="#102D3B"/>
<path opacity="0.11" d="M21.744 27.4704C21.72 27.4704 21.696 27.4645 21.678 27.4468C21.642 27.4114 21.642 27.3583 21.678 27.3229L42.342 7.0033C42.378 6.9679 42.432 6.9679 42.468 7.0033C42.504 7.0387 42.504 7.0918 42.468 7.1272L21.81 27.4468C21.792 27.4645 21.768 27.4704 21.744 27.4704Z" fill="#102D3B"/>
<path opacity="0.11" d="M21.744 26.6444C21.72 26.6444 21.696 26.6385 21.678 26.6208C21.642 26.5854 21.642 26.5323 21.678 26.4969L42.342 6.17729C42.378 6.14189 42.432 6.14189 42.468 6.17729C42.504 6.21269 42.504 6.26579 42.468 6.30119L21.81 26.6208C21.792 26.6385 21.768 26.6444 21.744 26.6444Z" fill="#102D3B"/>
<path opacity="0.11" d="M21.744 25.8184C21.72 25.8184 21.696 25.8125 21.678 25.7948C21.642 25.7594 21.642 25.7063 21.678 25.6709L42.342 5.34541C42.378 5.31001 42.432 5.31001 42.468 5.34541C42.504 5.38081 42.504 5.43391 42.468 5.46931L21.81 25.7948C21.792 25.8125 21.768 25.8184 21.744 25.8184Z" fill="#102D3B"/>
<path opacity="0.11" d="M21.744 24.9924C21.72 24.9924 21.696 24.9865 21.678 24.9688C21.642 24.9334 21.642 24.8803 21.678 24.8449L42.342 4.51942C42.378 4.48402 42.432 4.48402 42.468 4.51942C42.504 4.55482 42.504 4.60792 42.468 4.64332L21.81 24.9688C21.792 24.9865 21.768 24.9924 21.744 24.9924Z" fill="#102D3B"/>
<path opacity="0.11" d="M21.744 24.1664C21.72 24.1664 21.696 24.1605 21.678 24.1428C21.642 24.1074 21.642 24.0543 21.678 24.0189L42.342 3.69342C42.378 3.65802 42.432 3.65802 42.468 3.69342C42.504 3.72882 42.504 3.78192 42.468 3.81732L21.81 24.1428C21.792 24.1605 21.768 24.1664 21.744 24.1664Z" fill="#102D3B"/>
<path opacity="0.11" d="M21.744 23.3404C21.72 23.3404 21.696 23.3345 21.678 23.3168C21.642 23.2814 21.642 23.2283 21.678 23.1929L42.342 2.86742C42.378 2.83202 42.432 2.83202 42.468 2.86742C42.504 2.90282 42.504 2.95592 42.468 2.99132L21.81 23.3168C21.792 23.3345 21.768 23.3404 21.744 23.3404Z" fill="#102D3B"/>
<path opacity="0.11" d="M21.744 22.5144C21.72 22.5144 21.696 22.5085 21.678 22.4908C21.642 22.4554 21.642 22.4023 21.678 22.3669L42.342 2.04141C42.378 2.00601 42.432 2.00601 42.468 2.04141C42.504 2.07681 42.504 2.12991 42.468 2.16531L21.81 22.4908C21.792 22.5085 21.768 22.5144 21.744 22.5144Z" fill="#102D3B"/>
<path opacity="0.11" d="M21.744 21.6884C21.72 21.6884 21.696 21.6825 21.678 21.6648C21.642 21.6294 21.642 21.5763 21.678 21.5409L42.342 1.21542C42.378 1.18002 42.432 1.18002 42.468 1.21542C42.504 1.25082 42.504 1.30392 42.468 1.33932L21.81 21.6648C21.792 21.6825 21.768 21.6884 21.744 21.6884Z" fill="#102D3B"/>
<path opacity="0.11" d="M21.744 20.8624C21.72 20.8624 21.696 20.8565 21.678 20.8388C21.642 20.8034 21.642 20.7503 21.678 20.7149L42.342 0.389419C42.378 0.354019 42.432 0.354019 42.468 0.389419C42.504 0.424819 42.504 0.477919 42.468 0.513319L21.81 20.8388C21.792 20.8565 21.768 20.8624 21.744 20.8624Z" fill="#102D3B"/>
<path opacity="0.11" d="M21.744 20.0364C21.72 20.0364 21.696 20.0305 21.678 20.0128C21.642 19.9774 21.642 19.9243 21.678 19.8889L40.446 1.42192C40.482 1.38652 40.536 1.38652 40.572 1.42192C40.608 1.45732 40.608 1.51042 40.572 1.54582L21.81 20.0128C21.792 20.0305 21.768 20.0364 21.744 20.0364Z" fill="#102D3B"/>
<path opacity="0.11" d="M21.744 19.2104C21.72 19.2104 21.696 19.2045 21.678 19.1868C21.642 19.1514 21.642 19.0983 21.678 19.0629L39.282 1.74641C39.318 1.71101 39.372 1.71101 39.408 1.74641C39.444 1.78181 39.444 1.83491 39.408 1.87031L21.81 19.1868C21.792 19.2045 21.768 19.2104 21.744 19.2104Z" fill="#102D3B"/>
<path d="M38.46 16.697H37.02V40.061H38.46V16.697Z" fill="#3E4B4F"/>
<path opacity="0.3" d="M24.3 16.697H23.28V40.061H24.3V16.697Z" fill="#CCDDE5"/>
<path d="M39.84 40.061H23.28V16.697H39.84C40.434 16.697 40.92 17.1572 40.92 17.7413V38.9813C40.92 39.5713 40.434 40.061 39.84 40.061Z" stroke="#102D3B" stroke-width="8" stroke-miterlimit="10" stroke-linecap="round" stroke-linejoin="round"/>
<path d="M25.32 16.697H23.28V40.061H25.32V16.697Z" stroke="#102D3B" stroke-width="8" stroke-miterlimit="10" stroke-linecap="round" stroke-linejoin="round"/>
<path d="M40.92 23.423H23.28V30.031H40.92V23.423Z" fill="#FF9852"/>
<path d="M31.152 25.4526C31.152 25.5765 31.128 25.6768 31.08 25.7535C31.032 25.8302 30.978 25.8892 30.918 25.9364C30.828 26.0072 30.708 26.0367 30.546 26.0367H29.88V24.8213H30.396C30.474 24.8213 30.54 24.8272 30.594 24.8331C30.648 24.839 30.696 24.8508 30.744 24.8685C30.792 24.8862 30.828 24.898 30.858 24.9157C30.888 24.9334 30.918 24.9511 30.942 24.9747C30.984 25.0101 31.02 25.0514 31.05 25.0927C31.08 25.134 31.11 25.193 31.128 25.252C31.146 25.3169 31.152 25.3818 31.152 25.4526ZM30.774 25.4408C30.774 25.3405 30.756 25.2638 30.714 25.2107C30.678 25.1576 30.63 25.1163 30.576 25.0986C30.522 25.0809 30.468 25.0691 30.414 25.0691H30.258V25.7889H30.414C30.51 25.7889 30.594 25.7653 30.666 25.7181C30.738 25.6709 30.774 25.5824 30.774 25.4408Z" fill="#D85639"/>
<path d="M32.706 25.429C32.706 25.5411 32.682 25.6473 32.628 25.7417C32.574 25.8361 32.496 25.9128 32.388 25.9659C32.28 26.019 32.154 26.0485 32.004 26.0485C31.854 26.0485 31.722 26.019 31.614 25.96C31.506 25.901 31.428 25.8243 31.38 25.7299C31.326 25.6355 31.302 25.5352 31.302 25.4231C31.302 25.311 31.326 25.2107 31.38 25.1163C31.434 25.0219 31.512 24.9452 31.614 24.8862C31.722 24.8272 31.848 24.7977 32.004 24.7977C32.118 24.7977 32.22 24.8154 32.31 24.8449C32.4 24.8744 32.472 24.9216 32.532 24.9806C32.592 25.0396 32.634 25.1045 32.664 25.1812C32.694 25.2579 32.706 25.3464 32.706 25.429ZM32.328 25.429C32.328 25.3818 32.322 25.3405 32.31 25.3051C32.298 25.2697 32.274 25.2343 32.25 25.2048C32.22 25.1753 32.19 25.1576 32.148 25.1399C32.106 25.1222 32.064 25.1163 32.01 25.1163C31.908 25.1163 31.83 25.1458 31.776 25.2048C31.722 25.2638 31.692 25.3346 31.692 25.429C31.692 25.5234 31.722 25.5942 31.776 25.6532C31.836 25.7122 31.914 25.7417 32.01 25.7417C32.076 25.7417 32.136 25.7299 32.184 25.7004C32.232 25.6709 32.268 25.6355 32.292 25.5883C32.31 25.547 32.328 25.4939 32.328 25.429Z" fill="#D85639"/>
<path d="M34.0139 25.1222H33.5639V26.0426H33.1919V25.1222H32.7419V24.8272H34.0199L34.0139 25.1222Z" fill="#D85639"/>
<path d="M31.05 27.3996C31.026 27.4114 31.002 27.4173 30.984 27.4232C30.966 27.4291 30.948 27.435 30.93 27.4409C30.912 27.4468 30.888 27.4527 30.852 27.4586C30.798 27.4704 30.738 27.4822 30.684 27.4881C30.63 27.494 30.57 27.4999 30.504 27.4999C30.378 27.4999 30.264 27.4763 30.156 27.435C30.048 27.3878 29.964 27.3229 29.898 27.2285C29.832 27.1341 29.802 27.0161 29.802 26.8804C29.802 26.7919 29.82 26.7034 29.85 26.6208C29.88 26.5382 29.934 26.4674 30 26.4143C30.054 26.373 30.114 26.3376 30.168 26.314C30.228 26.2904 30.282 26.2786 30.336 26.2668C30.39 26.2609 30.45 26.255 30.516 26.255C30.624 26.255 30.714 26.2609 30.786 26.2786C30.858 26.2963 30.936 26.314 31.02 26.3435V26.6326C30.966 26.6031 30.906 26.5736 30.84 26.55C30.78 26.5264 30.702 26.5205 30.606 26.5205C30.498 26.5205 30.414 26.5382 30.348 26.5795C30.282 26.6208 30.24 26.668 30.216 26.7211C30.192 26.7742 30.18 26.8332 30.18 26.8804C30.18 26.9394 30.192 26.9984 30.222 27.0515C30.252 27.1046 30.294 27.1459 30.354 27.1754C30.414 27.2049 30.486 27.2226 30.564 27.2226C30.612 27.2226 30.66 27.2167 30.714 27.2049V27.0633H30.546V26.8214H31.038V27.3996H31.05Z" fill="#D85639"/>
<path d="M32.538 27.4881H32.136L32.04 27.2698C32.004 27.1931 31.974 27.1341 31.944 27.0987C31.914 27.0633 31.89 27.0397 31.86 27.0279C31.83 27.0161 31.8 27.0102 31.758 27.0102H31.716V27.4822H31.344V26.2668H31.98C32.082 26.2668 32.166 26.2845 32.232 26.3258C32.298 26.3671 32.346 26.4143 32.376 26.4733C32.406 26.5323 32.418 26.5854 32.418 26.6385C32.418 26.6975 32.406 26.7506 32.382 26.7919C32.358 26.8332 32.334 26.8627 32.304 26.8863C32.28 26.904 32.25 26.9217 32.214 26.9394C32.256 26.963 32.286 26.9866 32.31 27.022C32.334 27.0574 32.37 27.1164 32.418 27.2108L32.538 27.4881ZM32.034 26.6562C32.034 26.5972 32.016 26.5618 31.98 26.5382C31.944 26.5146 31.884 26.5028 31.8 26.5028H31.722V26.7978H31.8C31.89 26.7978 31.956 26.786 31.986 26.7683C32.016 26.7506 32.034 26.7093 32.034 26.6562Z" fill="#D85639"/>
<path d="M33.0781 27.4881H32.7061V26.2727H33.0781V27.4881Z" fill="#D85639"/>
<path d="M34.662 26.8981C34.662 27.022 34.638 27.1223 34.59 27.199C34.542 27.2757 34.488 27.3347 34.428 27.3819C34.338 27.4527 34.218 27.4822 34.056 27.4822H33.39V26.2668H33.906C33.984 26.2668 34.05 26.2727 34.104 26.2786C34.158 26.2845 34.206 26.2963 34.254 26.314C34.302 26.3317 34.338 26.3435 34.368 26.3612C34.398 26.3789 34.428 26.3966 34.452 26.4202C34.494 26.4556 34.53 26.4969 34.56 26.5382C34.59 26.5795 34.62 26.6385 34.638 26.6975C34.65 26.7624 34.662 26.8273 34.662 26.8981ZM34.284 26.8863C34.284 26.786 34.266 26.7093 34.224 26.6562C34.188 26.6031 34.14 26.5618 34.086 26.5441C34.032 26.5264 33.978 26.5146 33.924 26.5146H33.768V27.2344H33.924C34.02 27.2344 34.104 27.2108 34.176 27.1636C34.248 27.1164 34.284 27.0279 34.284 26.8863Z" fill="#D85639"/>
<path d="M31.014 28.5855C31.014 28.6917 30.978 28.7743 30.906 28.8333C30.834 28.8982 30.732 28.9277 30.6 28.9277H29.886V27.7123H30.48C30.558 27.7123 30.624 27.7182 30.684 27.7359C30.744 27.7477 30.786 27.7713 30.822 27.7949C30.858 27.8185 30.882 27.848 30.9 27.8834C30.918 27.9188 30.924 27.9542 30.924 27.9955C30.924 28.0427 30.918 28.0781 30.9 28.1194C30.882 28.1607 30.858 28.1902 30.834 28.2138C30.81 28.2374 30.78 28.2551 30.756 28.2669C30.84 28.3023 30.906 28.3436 30.948 28.3908C30.99 28.438 31.014 28.5088 31.014 28.5855ZM30.576 28.0663C30.576 28.0073 30.558 27.9719 30.516 27.9483C30.474 27.9247 30.414 27.9188 30.33 27.9188H30.252V28.2079H30.33C30.414 28.2079 30.474 28.1961 30.516 28.1784C30.558 28.1666 30.576 28.1253 30.576 28.0663ZM30.636 28.5737C30.636 28.4675 30.558 28.4203 30.408 28.4203H30.258V28.733H30.408C30.564 28.7271 30.636 28.674 30.636 28.5737Z" fill="#D85639"/>
<path d="M32.574 28.3259C32.574 28.438 32.55 28.5442 32.496 28.6386C32.442 28.733 32.364 28.8097 32.256 28.8628C32.148 28.9159 32.022 28.9454 31.872 28.9454C31.722 28.9454 31.59 28.9159 31.482 28.8569C31.374 28.7979 31.296 28.7212 31.248 28.6268C31.194 28.5324 31.17 28.4321 31.17 28.32C31.17 28.2079 31.194 28.1076 31.248 28.0132C31.302 27.9188 31.38 27.8421 31.482 27.7831C31.59 27.7241 31.716 27.6946 31.872 27.6946C31.986 27.6946 32.088 27.7123 32.178 27.7418C32.268 27.7713 32.34 27.8185 32.4 27.8775C32.46 27.9365 32.502 28.0014 32.532 28.0781C32.562 28.1548 32.574 28.2374 32.574 28.3259ZM32.19 28.3259C32.19 28.2787 32.184 28.2374 32.172 28.202C32.16 28.1666 32.136 28.1312 32.112 28.1017C32.082 28.0722 32.052 28.0545 32.01 28.0368C31.968 28.0191 31.926 28.0132 31.872 28.0132C31.77 28.0132 31.692 28.0427 31.638 28.1017C31.584 28.1607 31.554 28.2315 31.554 28.3259C31.554 28.4203 31.584 28.4911 31.638 28.5501C31.698 28.6091 31.776 28.6386 31.872 28.6386C31.938 28.6386 31.998 28.6268 32.046 28.5973C32.094 28.5678 32.13 28.5324 32.154 28.4852C32.178 28.438 32.19 28.3849 32.19 28.3259Z" fill="#D85639"/>
<path d="M34.122 28.3259C34.122 28.438 34.098 28.5442 34.044 28.6386C33.99 28.733 33.912 28.8097 33.804 28.8628C33.696 28.9159 33.57 28.9454 33.42 28.9454C33.27 28.9454 33.138 28.9159 33.03 28.8569C32.922 28.7979 32.844 28.7212 32.796 28.6268C32.742 28.5324 32.718 28.4321 32.718 28.32C32.718 28.2079 32.742 28.1076 32.796 28.0132C32.85 27.9188 32.928 27.8421 33.03 27.7831C33.138 27.7241 33.264 27.6946 33.42 27.6946C33.534 27.6946 33.636 27.7123 33.726 27.7418C33.816 27.7713 33.888 27.8185 33.948 27.8775C34.008 27.9365 34.05 28.0014 34.08 28.0781C34.11 28.1548 34.122 28.2374 34.122 28.3259ZM33.744 28.3259C33.744 28.2787 33.738 28.2374 33.726 28.202C33.714 28.1666 33.69 28.1312 33.666 28.1017C33.636 28.0722 33.606 28.0545 33.564 28.0368C33.522 28.0191 33.48 28.0132 33.426 28.0132C33.324 28.0132 33.246 28.0427 33.192 28.1017C33.138 28.1607 33.108 28.2315 33.108 28.3259C33.108 28.4203 33.138 28.4911 33.192 28.5501C33.252 28.6091 33.33 28.6386 33.426 28.6386C33.492 28.6386 33.552 28.6268 33.6 28.5973C33.648 28.5678 33.684 28.5324 33.708 28.4852C33.732 28.438 33.744 28.3849 33.744 28.3259Z" fill="#D85639"/>
<path d="M35.652 28.9336H35.196L34.722 28.3672V28.9336H34.35V27.7182H34.722V28.261L35.172 27.7182H35.574L35.112 28.2846L35.652 28.9336Z" fill="#D85639"/>
<path opacity="0.6" d="M25.3199 23.423V30.031" stroke="#D85639" stroke-width="8" stroke-miterlimit="10"/>
<path d="M24.3 23.423H23.28V30.031H24.3V23.423Z" fill="#FDBA5D"/>
<path opacity="0.61" d="M38.4599 23.423H37.4399V30.031H38.4599V23.423Z" fill="#D85639"/>
<path d="M40.92 23.423H23.28V30.031H40.92V23.423Z" stroke="#102D3B" stroke-width="8" stroke-miterlimit="10" stroke-linecap="round" stroke-linejoin="round"/>
<path d="M37.452 40.533H36.714C36.522 40.533 36.366 40.3796 36.366 40.1908V16.5672C36.366 16.3784 36.522 16.225 36.714 16.225H37.452C37.644 16.225 37.8 16.3784 37.8 16.5672V40.1849C37.8 40.3796 37.644 40.533 37.452 40.533Z" fill="#B7C8CE"/>
<path d="M37.452 40.533H36.714C36.522 40.533 36.366 40.3796 36.366 40.1908V16.5672C36.366 16.3784 36.522 16.225 36.714 16.225H37.452C37.644 16.225 37.8 16.3784 37.8 16.5672V40.1849C37.8 40.3796 37.644 40.533 37.452 40.533Z" stroke="#102D3B" stroke-width="8" stroke-miterlimit="10" stroke-linecap="round" stroke-linejoin="round"/>
<path d="M26.94 42.7573L25.14 41.772V40.061H26.94V42.7573Z" fill="#EA3939"/>
<path opacity="0.62" d="M26.94 40.061H25.14V40.7277H26.94V40.061Z" fill="#EA3939"/>
<path d="M26.94 42.7573L25.14 41.772V40.061H26.94V42.7573Z" stroke="#102D3B" stroke-width="8" stroke-miterlimit="10" stroke-linecap="round" stroke-linejoin="round"/>
<path d="M19.7399 21.653H17.8199V30.562H19.7399V21.653Z" fill="#0A7362" stroke="#0A7362" stroke-width="8" stroke-miterlimit="10" stroke-linecap="round" stroke-linejoin="round"/>
<path d="M19.764 36.58C19.116 36.58 18.462 36.58 17.814 36.58C17.688 35.282 17.688 33.925 17.814 32.568C18.462 32.568 19.116 32.568 19.764 32.568C19.89 33.925 19.89 35.282 19.764 36.58Z" fill="#0A7362" stroke="#0A7362" stroke-width="8" stroke-miterlimit="10" stroke-linecap="round" stroke-linejoin="round"/>
<path d="M19.764 32.568C19.116 32.568 18.462 32.568 17.814 32.568C18.216 31.978 18.216 31.211 17.814 30.562C18.462 30.562 19.116 30.562 19.764 30.562C19.362 31.211 19.362 31.978 19.764 32.568Z" fill="#0A7362" stroke="#0A7362" stroke-width="8" stroke-miterlimit="10" stroke-linecap="round" stroke-linejoin="round"/>
<path d="M19.038 39.353C19.362 38.409 19.752 37.524 19.764 36.58H17.814C17.826 37.524 18.216 38.409 18.54 39.353H19.038Z" fill="#0A7362" stroke="#0A7362" stroke-width="8" stroke-miterlimit="10" stroke-linecap="round" stroke-linejoin="round"/>
<path d="M19.5001 20.355H18.0601V21.653H19.5001V20.355Z" fill="#0A7362" stroke="#0A7362" stroke-width="8" stroke-miterlimit="10" stroke-linecap="round" stroke-linejoin="round"/>
<path d="M19.32 20.355H18.24V18.8387C18.24 18.6322 18.432 18.467 18.642 18.467H18.942C19.152 18.467 19.32 18.6322 19.32 18.8387V20.355Z" fill="#0A7362" stroke="#0A7362" stroke-width="8" stroke-miterlimit="10" stroke-linecap="round" stroke-linejoin="round"/>
<path d="M20.4 22.479H18.54V23.541H20.4V22.479Z" fill="#0A7362" stroke="#0A7362" stroke-width="8" stroke-miterlimit="10" stroke-linecap="round" stroke-linejoin="round"/>
<path d="M20.4 27.1577L19.74 26.3022V23.541H20.4V27.1577Z" fill="#0A7362" stroke="#0A7362" stroke-width="8" stroke-miterlimit="10" stroke-linecap="round" stroke-linejoin="round"/>
<path d="M19.32 21.358H17.4V30.267H19.32V21.358Z" stroke="#102D3B" stroke-width="8" stroke-miterlimit="10" stroke-linecap="round" stroke-linejoin="round"/>
<path d="M19.3441 36.285C18.6961 36.285 18.0421 36.285 17.3941 36.285C17.2681 34.987 17.2681 33.63 17.3941 32.273C18.0421 32.273 18.6961 32.273 19.3441 32.273C19.4701 33.63 19.4701 34.987 19.3441 36.285Z" stroke="#102D3B" stroke-width="8" stroke-miterlimit="10" stroke-linecap="round" stroke-linejoin="round"/>
<path d="M19.44 33.689H17.28V34.928H19.44V33.689Z" stroke="#102D3B" stroke-width="8" stroke-miterlimit="10" stroke-linecap="round" stroke-linejoin="round"/>
<path d="M19.344 32.273C18.696 32.273 18.042 32.273 17.394 32.273C17.796 31.683 17.796 30.916 17.394 30.267C18.042 30.267 18.696 30.267 19.344 30.267C18.942 30.916 18.942 31.683 19.344 32.273Z" stroke="#102D3B" stroke-width="8" stroke-miterlimit="10" stroke-linecap="round" stroke-linejoin="round"/>
<path d="M18.618 39.058C18.942 38.114 19.332 37.229 19.344 36.285H17.394C17.406 37.229 17.796 38.114 18.12 39.058H18.618Z" stroke="#102D3B" stroke-width="8" stroke-miterlimit="10" stroke-linecap="round" stroke-linejoin="round"/>
<path d="M19.98 22.184H18.12V23.246H19.98V22.184Z" stroke="#102D3B" stroke-width="8" stroke-miterlimit="10" stroke-linecap="round" stroke-linejoin="round"/>
<path d="M19.9799 26.8627L19.3199 26.0072V23.246H19.9799V26.8627Z" stroke="#102D3B" stroke-width="8" stroke-miterlimit="10" stroke-linecap="round" stroke-linejoin="round"/>
</g>
</g>
<defs>
<clipPath id="clip0_5_780">
<rect width="60" height="59" rx="16" fill="white"/>
</clipPath>
</defs>
</svg>
