<svg width="40" height="40" viewBox="0 0 40 40" fill="none" xmlns="http://www.w3.org/2000/svg">
<path d="M33.75 10H27.5V8.75C27.4959 7.7567 27.0995 6.80527 26.3971 6.10289C25.6947 5.40052 24.7433 5.00411 23.75 5H16.25C15.2567 5.00411 14.3053 5.40052 13.6029 6.10289C12.9005 6.80527 12.5041 7.7567 12.5 8.75V10H6.25C5.58696 10 4.95107 10.2634 4.48223 10.7322C4.01339 11.2011 3.75 11.837 3.75 12.5V32.5C3.75 33.163 4.01339 33.7989 4.48223 34.2678C4.95107 34.7366 5.58696 35 6.25 35H33.75C34.413 35 35.0489 34.7366 35.5178 34.2678C35.9866 33.7989 36.25 33.163 36.25 32.5V12.5C36.25 11.837 35.9866 11.2011 35.5178 10.7322C35.0489 10.2634 34.413 10 33.75 10ZM15 12.5H25V32.5H15V12.5ZM15 8.75C15 8.41848 15.1317 8.10054 15.3661 7.86612C15.6005 7.6317 15.9185 7.5 16.25 7.5H23.75C24.0815 7.5 24.3995 7.6317 24.6339 7.86612C24.8683 8.10054 25 8.41848 25 8.75V10H15V8.75Z" fill="#07B594"/>
</svg>
