<svg width="40" height="40" viewBox="0 0 40 40" fill="none" xmlns="http://www.w3.org/2000/svg">
<path d="M19.9844 12.5C23.091 12.5 25.6094 9.9816 25.6094 6.875C25.6094 3.7684 23.091 1.25 19.9844 1.25C16.8778 1.25 14.3594 3.7684 14.3594 6.875C14.3594 9.9816 16.8778 12.5 19.9844 12.5Z" fill="#07B594"/>
<path d="M33.0782 21.7969L26.9219 13.8906L26.8282 13.7813C26.4229 13.3736 25.9408 13.0505 25.4097 12.8305C24.8786 12.6106 24.3092 12.4983 23.7344 12.5H16.2344C15.6596 12.4983 15.0902 12.6106 14.5591 12.8305C14.028 13.0505 13.5459 13.3736 13.1407 13.7813L13.0313 13.8906L6.89065 21.7969C6.30428 22.3833 5.97485 23.1786 5.97485 24.0078C5.97485 24.8371 6.30428 25.6324 6.89065 26.2188C7.47703 26.8051 8.27233 27.1346 9.10159 27.1346C9.93085 27.1346 10.7262 26.8051 11.3125 26.2188L13.5157 24.5L10.4063 34.2969C10.0976 35.0275 10.0753 35.8475 10.3438 36.5938C10.4842 36.981 10.7001 37.3366 10.9791 37.6397C11.2581 37.9428 11.5945 38.1874 11.9688 38.3594C12.3374 38.535 12.7374 38.6352 13.1452 38.654C13.5531 38.6727 13.9606 38.6098 14.3438 38.4688C15.0949 38.1963 15.7147 37.6491 16.0782 36.9375L19.9844 30.7813L23.8907 36.9375C24.2528 37.6442 24.8657 38.1903 25.6094 38.4688C25.9557 38.5915 26.3202 38.6549 26.6875 38.6563C27.1419 38.6585 27.5908 38.557 28 38.3594C28.753 38.0077 29.3369 37.3733 29.625 36.5938C29.8965 35.8468 29.8685 35.0237 29.5469 34.2969L26.4532 24.5L28.6563 26.2188C29.2478 26.7784 30.0344 27.085 30.8487 27.0733C31.6629 27.0616 32.4404 26.7326 33.0157 26.1563C33.3055 25.8677 33.5349 25.5242 33.6905 25.1459C33.8462 24.7677 33.9248 24.3622 33.9219 23.9531C33.9287 23.1526 33.6265 22.3802 33.0782 21.7969Z" fill="#07B594"/>
</svg>
