<svg width="40" height="40" viewBox="0 0 40 40" fill="none" xmlns="http://www.w3.org/2000/svg">
<path d="M16.25 2.5H23.75C24.0815 2.5 24.3995 2.3683 24.6339 2.13388C24.8683 1.89946 25 1.58152 25 1.25C25 0.918479 24.8683 0.600537 24.6339 0.366117C24.3995 0.131696 24.0815 0 23.75 0L16.25 0C15.9185 0 15.6005 0.131696 15.3661 0.366117C15.1317 0.600537 15 0.918479 15 1.25C15 1.58152 15.1317 1.89946 15.3661 2.13388C15.6005 2.3683 15.9185 2.5 16.25 2.5Z" fill="#FDBA5D"/>
<path d="M20 5C17.0333 5 14.1332 5.87973 11.6665 7.52796C9.19972 9.17618 7.27713 11.5189 6.14181 14.2597C5.0065 17.0006 4.70945 20.0166 5.28823 22.9264C5.86701 25.8361 7.29562 28.5088 9.3934 30.6066C11.4912 32.7044 14.1639 34.133 17.0737 34.7118C19.9834 35.2906 22.9994 34.9935 25.7403 33.8582C28.4811 32.7229 30.8238 30.8003 32.472 28.3336C34.1203 25.8668 35 22.9667 35 20C34.9918 16.0243 33.4087 12.2138 30.5975 9.40252C27.7862 6.59126 23.9757 5.00826 20 5ZM27.0781 14.7031L20.8906 20.8906C20.6517 21.1217 20.3324 21.2508 20 21.2508C19.6677 21.2508 19.3483 21.1217 19.1094 20.8906C18.8747 20.6536 18.743 20.3336 18.743 20C18.743 19.6664 18.8747 19.3464 19.1094 19.1094L25.2969 12.9219C25.409 12.7853 25.5484 12.6737 25.7062 12.5943C25.864 12.5149 26.0367 12.4694 26.2131 12.4607C26.3896 12.452 26.5659 12.4804 26.7307 12.544C26.8955 12.6076 27.0452 12.705 27.1701 12.8299C27.2951 12.9548 27.3924 13.1045 27.456 13.2693C27.5196 13.4341 27.548 13.6104 27.5393 13.7869C27.5306 13.9633 27.4851 14.136 27.4057 14.2938C27.3263 14.4516 27.2147 14.591 27.0781 14.7031Z" fill="#FDBA5D"/>
</svg>
