<svg width="40" height="40" viewBox="0 0 40 40" fill="none" xmlns="http://www.w3.org/2000/svg">
<path d="M19.9844 11.25C22.4006 11.25 24.3594 9.29125 24.3594 6.875C24.3594 4.45875 22.4006 2.5 19.9844 2.5C17.5681 2.5 15.6094 4.45875 15.6094 6.875C15.6094 9.29125 17.5681 11.25 19.9844 11.25Z" stroke="#526066" stroke-width="2" stroke-linecap="round" stroke-linejoin="round"/>
<path d="M24.0469 21.0469L29.4844 25.2656C29.8439 25.5648 30.3022 25.7189 30.7694 25.6976C31.2366 25.6763 31.679 25.4811 32.0097 25.1504C32.3405 24.8196 32.5356 24.3773 32.557 23.91C32.5783 23.4428 32.4242 22.9845 32.125 22.625L25.9375 14.6719C25.6492 14.3806 25.3061 14.1492 24.928 13.991C24.5499 13.8328 24.1442 13.7509 23.7344 13.75H16.2344C15.4025 13.7545 14.6057 14.0855 14.0156 14.6719L7.82813 22.625C7.50596 22.9826 7.33366 23.4504 7.3469 23.9316C7.36015 24.4127 7.55793 24.8704 7.89928 25.2097C8.24064 25.5491 8.69943 25.7441 9.18065 25.7546C9.66188 25.765 10.1287 25.5899 10.4844 25.2656L15.9219 21.0469L11.5781 34.7344C11.4735 34.958 11.4139 35.2001 11.4028 35.4468C11.3917 35.6935 11.4293 35.9399 11.5135 36.1721C11.5976 36.4042 11.7267 36.6175 11.8933 36.7998C12.0599 36.9821 12.2607 37.1297 12.4844 37.2344C12.708 37.339 12.9501 37.3986 13.1968 37.4097C13.4435 37.4208 13.6899 37.3832 13.9221 37.299C14.1542 37.2149 14.3675 37.0858 14.5498 36.9192C14.7321 36.7526 14.8797 36.5518 14.9844 36.3281L19.9844 28.4531L24.9844 36.3281C25.082 36.5615 25.226 36.7728 25.4074 36.9491C25.5889 37.1255 25.8042 37.2632 26.0403 37.3542C26.2764 37.4451 26.5285 37.4873 26.7814 37.4782C27.0343 37.4691 27.2827 37.4089 27.5117 37.3013C27.7407 37.1936 27.9455 37.0408 28.1139 36.8519C28.2822 36.663 28.4106 36.4419 28.4912 36.2021C28.5719 35.9623 28.6032 35.7086 28.5832 35.4563C28.5632 35.2041 28.4924 34.9585 28.375 34.7344L24.0469 21.0469Z" stroke="#526066" stroke-width="2" stroke-linecap="round" stroke-linejoin="round"/>
</svg>
