<svg width="40" height="40" viewBox="0 0 40 40" fill="none" xmlns="http://www.w3.org/2000/svg">
<path d="M33.75 11.25H6.25C5.55964 11.25 5 11.8096 5 12.5V32.5C5 33.1904 5.55964 33.75 6.25 33.75H33.75C34.4404 33.75 35 33.1904 35 32.5V12.5C35 11.8096 34.4404 11.25 33.75 11.25Z" stroke="#526066" stroke-width="2" stroke-linecap="round" stroke-linejoin="round"/>
<path d="M26.25 33.75V8.75C26.25 8.08696 25.9866 7.45107 25.5178 6.98223C25.0489 6.51339 24.413 6.25 23.75 6.25H16.25C15.587 6.25 14.9511 6.51339 14.4822 6.98223C14.0134 7.45107 13.75 8.08696 13.75 8.75V33.75" stroke="#526066" stroke-width="2" stroke-linecap="round" stroke-linejoin="round"/>
</svg>
